<svg xmlns="http://www.w3.org/2000/svg" xmlns:xlink="http://www.w3.org/1999/xlink" contentStyleType="text/css" data-diagram-type="ACTIVITY" height="417px" preserveAspectRatio="none" style="width:347px;height:417px;background:#FFFFFF;" version="1.1" viewBox="0 0 347 417" width="347px" zoomAndPan="magnify"><defs/><g><ellipse cx="159.7036" cy="20" fill="#222222" rx="10" ry="10" style="stroke:#222222;stroke-width:1;"/><rect fill="#F1F1F1" height="34.1328" rx="12.5" ry="12.5" style="stroke:#181818;stroke-width:0.5;" width="140.6211" x="89.3931" y="50"/><text fill="#000000" font-family="sans-serif" font-size="12" lengthAdjust="spacing" textLength="120.6211" x="99.3931" y="71.6016">Query active tab URL</text><rect fill="#F1F1F1" height="34.1328" rx="12.5" ry="12.5" style="stroke:#181818;stroke-width:0.5;" width="123.3242" x="98.0415" y="104.1328"/><text fill="#000000" font-family="sans-serif" font-size="12" lengthAdjust="spacing" textLength="103.3242" x="108.0415" y="125.7344">Check local cache</text><polygon fill="#F1F1F1" points="132.4453,158.2656,186.9619,158.2656,198.9619,170.2656,186.9619,182.2656,132.4453,182.2656,120.4453,170.2656,132.4453,158.2656" style="stroke:#181818;stroke-width:0.5;"/><text fill="#000000" font-family="sans-serif" font-size="11" lengthAdjust="spacing" textLength="54.5166" x="132.4453" y="174.4229">Cache hit?</text><text fill="#000000" font-family="sans-serif" font-size="11" lengthAdjust="spacing" textLength="17.4829" x="102.9624" y="167.9453">yes</text><text fill="#000000" font-family="sans-serif" font-size="11" lengthAdjust="spacing" textLength="13.5835" x="198.9619" y="167.9453">no</text><rect fill="#F1F1F1" height="34.1328" rx="12.5" ry="12.5" style="stroke:#181818;stroke-width:0.5;" width="124.8184" x="11" y="192.2656"/><text fill="#000000" font-family="sans-serif" font-size="12" lengthAdjust="spacing" textLength="104.8184" x="21" y="213.8672">Retrieve metadata</text><rect fill="#F1F1F1" height="34.1328" rx="12.5" ry="12.5" style="stroke:#181818;stroke-width:0.5;" width="114.3477" x="188.8242" y="192.2656"/><text fill="#000000" font-family="sans-serif" font-size="12" lengthAdjust="spacing" textLength="94.3477" x="198.8242" y="213.8672">Call /lookup API</text><rect fill="#F1F1F1" height="34.1328" rx="12.5" ry="12.5" style="stroke:#181818;stroke-width:0.5;" width="180.3594" x="155.8184" y="246.3984"/><text fill="#000000" font-family="sans-serif" font-size="12" lengthAdjust="spacing" textLength="160.3594" x="165.8184" y="268">Receive and store metadata</text><polygon fill="#F1F1F1" points="159.7036,286.5313,171.7036,298.5313,159.7036,310.5313,147.7036,298.5313,159.7036,286.5313" style="stroke:#181818;stroke-width:0.5;"/><rect fill="#F1F1F1" height="34.1328" rx="12.5" ry="12.5" style="stroke:#181818;stroke-width:0.5;" width="137.4688" x="90.9692" y="330.5313"/><text fill="#000000" font-family="sans-serif" font-size="12" lengthAdjust="spacing" textLength="117.4688" x="100.9692" y="352.1328">Send metadata to UI</text><ellipse cx="159.7036" cy="395.6641" fill="none" rx="11" ry="11" style="stroke:#222222;stroke-width:1;"/><ellipse cx="159.7036" cy="395.6641" fill="#222222" rx="6" ry="6" style="stroke:#222222;stroke-width:1;"/><line style="stroke:#181818;stroke-width:1;" x1="159.7036" x2="159.7036" y1="30" y2="50"/><polygon fill="#181818" points="155.7036,40,159.7036,50,163.7036,40,159.7036,44" style="stroke:#181818;stroke-width:1;"/><line style="stroke:#181818;stroke-width:1;" x1="159.7036" x2="159.7036" y1="84.1328" y2="104.1328"/><polygon fill="#181818" points="155.7036,94.1328,159.7036,104.1328,163.7036,94.1328,159.7036,98.1328" style="stroke:#181818;stroke-width:1;"/><line style="stroke:#181818;stroke-width:1;" x1="245.998" x2="245.998" y1="226.3984" y2="246.3984"/><polygon fill="#181818" points="241.998,236.3984,245.998,246.3984,249.998,236.3984,245.998,240.3984" style="stroke:#181818;stroke-width:1;"/><line style="stroke:#181818;stroke-width:1;" x1="120.4453" x2="73.4092" y1="170.2656" y2="170.2656"/><line style="stroke:#181818;stroke-width:1;" x1="73.4092" x2="73.4092" y1="170.2656" y2="192.2656"/><polygon fill="#181818" points="69.4092,182.2656,73.4092,192.2656,77.4092,182.2656,73.4092,186.2656" style="stroke:#181818;stroke-width:1;"/><line style="stroke:#181818;stroke-width:1;" x1="198.9619" x2="245.998" y1="170.2656" y2="170.2656"/><line style="stroke:#181818;stroke-width:1;" x1="245.998" x2="245.998" y1="170.2656" y2="192.2656"/><polygon fill="#181818" points="241.998,182.2656,245.998,192.2656,249.998,182.2656,245.998,186.2656" style="stroke:#181818;stroke-width:1;"/><line style="stroke:#181818;stroke-width:1;" x1="73.4092" x2="73.4092" y1="226.3984" y2="298.5313"/><line style="stroke:#181818;stroke-width:1;" x1="73.4092" x2="147.7036" y1="298.5313" y2="298.5313"/><polygon fill="#181818" points="137.7036,294.5313,147.7036,298.5313,137.7036,302.5313,141.7036,298.5313" style="stroke:#181818;stroke-width:1;"/><line style="stroke:#181818;stroke-width:1;" x1="245.998" x2="245.998" y1="280.5313" y2="298.5313"/><line style="stroke:#181818;stroke-width:1;" x1="245.998" x2="171.7036" y1="298.5313" y2="298.5313"/><polygon fill="#181818" points="181.7036,294.5313,171.7036,298.5313,181.7036,302.5313,177.7036,298.5313" style="stroke:#181818;stroke-width:1;"/><line style="stroke:#181818;stroke-width:1;" x1="159.7036" x2="159.7036" y1="138.2656" y2="158.2656"/><polygon fill="#181818" points="155.7036,148.2656,159.7036,158.2656,163.7036,148.2656,159.7036,152.2656" style="stroke:#181818;stroke-width:1;"/><line style="stroke:#181818;stroke-width:1;" x1="159.7036" x2="159.7036" y1="310.5313" y2="330.5313"/><polygon fill="#181818" points="155.7036,320.5313,159.7036,330.5313,163.7036,320.5313,159.7036,324.5313" style="stroke:#181818;stroke-width:1;"/><line style="stroke:#181818;stroke-width:1;" x1="159.7036" x2="159.7036" y1="364.6641" y2="384.6641"/><polygon fill="#181818" points="155.7036,374.6641,159.7036,384.6641,163.7036,374.6641,159.7036,378.6641" style="stroke:#181818;stroke-width:1;"/><!--SRC=[LOqn2uCm58Jt_8eRTUgU3AKu5Jgq5Udy6fyac2OIduBWZw-sKEXqnxlxtgqrvzbRVgJSSrxLA9H5wTl4UG5PyJD3w8dcVZ5ALuvjZv0i1LYoZeto7Ofgjt1UZYN4SKIny5WgGDzPikVjnuk5MX8oYiF8A6Bwv1M5W4D8gPy6dAvdyuKixxiKMuoIyXyTMzyfNM_wkq8IcWtTkiCR]--></g></svg>