<svg xmlns="http://www.w3.org/2000/svg" xmlns:xlink="http://www.w3.org/1999/xlink" contentStyleType="text/css" data-diagram-type="SEQUENCE" height="534px" preserveAspectRatio="none" style="width:751px;height:534px;background:#FFFFFF;" version="1.1" viewBox="0 0 751 534" width="751px" zoomAndPan="magnify"><defs/><g><rect fill="none" height="221.1289" style="stroke:#000000;stroke-width:1.5;" width="375.6948" x="368.7085" y="157.1094"/><g><title>User</title><rect fill="#000000" fill-opacity="0.00000" height="372.3711" width="8" x="19.1826" y="81.4883"/><line style="stroke:#181818;stroke-width:0.5;stroke-dasharray:5.0,5.0;" x1="23" x2="23" y1="81.4883" y2="453.8594"/></g><g><title>ServiceWorker</title><rect fill="#000000" fill-opacity="0.00000" height="372.3711" width="8" x="141.5205" y="81.4883"/><line style="stroke:#181818;stroke-width:0.5;stroke-dasharray:5.0,5.0;" x1="144.8467" x2="144.8467" y1="81.4883" y2="453.8594"/></g><g><title>API</title><rect fill="#000000" fill-opacity="0.00000" height="372.3711" width="8" x="392.4238" y="81.4883"/><line style="stroke:#181818;stroke-width:0.5;stroke-dasharray:5.0,5.0;" x1="395.7085" x2="395.7085" y1="81.4883" y2="453.8594"/></g><g><title>MongoDB</title><rect fill="#000000" fill-opacity="0.00000" height="372.3711" width="8" x="532.3638" y="81.4883"/><line style="stroke:#181818;stroke-width:0.5;stroke-dasharray:5.0,5.0;" x1="535.7563" x2="535.7563" y1="81.4883" y2="453.8594"/></g><g><title>ScrapingService</title><rect fill="#000000" fill-opacity="0.00000" height="372.3711" width="8" x="641.8608" y="81.4883"/><line style="stroke:#181818;stroke-width:0.5;stroke-dasharray:5.0,5.0;" x1="644.9712" x2="644.9712" y1="81.4883" y2="453.8594"/></g><g class="participant participant-head" data-participant="User"><text fill="#000000" font-family="sans-serif" font-size="14" lengthAdjust="spacing" textLength="30.3652" x="5" y="78.5352">User</text><ellipse cx="23.1826" cy="13.5" fill="#E2E2F0" rx="8" ry="8" style="stroke:#181818;stroke-width:0.5;"/><path d="M23.1826,21.5 L23.1826,48.5 M10.1826,29.5 L36.1826,29.5 M23.1826,48.5 L10.1826,63.5 M23.1826,48.5 L36.1826,63.5" fill="none" style="stroke:#181818;stroke-width:0.5;"/></g><g class="participant participant-tail" data-participant="User"><text fill="#000000" font-family="sans-serif" font-size="14" lengthAdjust="spacing" textLength="30.3652" x="5" y="466.3945">User</text><ellipse cx="23.1826" cy="477.8477" fill="#E2E2F0" rx="8" ry="8" style="stroke:#181818;stroke-width:0.5;"/><path d="M23.1826,485.8477 L23.1826,512.8477 M10.1826,493.8477 L36.1826,493.8477 M23.1826,512.8477 L10.1826,527.8477 M23.1826,512.8477 L36.1826,527.8477" fill="none" style="stroke:#181818;stroke-width:0.5;"/></g><g class="participant participant-head" data-participant="SW"><rect fill="#E2E2F0" height="30.4883" rx="2.5" ry="2.5" style="stroke:#181818;stroke-width:0.5;" width="109.3477" x="90.8467" y="50"/><text fill="#000000" font-family="sans-serif" font-size="14" lengthAdjust="spacing" textLength="95.3477" x="97.8467" y="70.5352">ServiceWorker</text></g><g class="participant participant-tail" data-participant="SW"><rect fill="#E2E2F0" height="30.4883" rx="2.5" ry="2.5" style="stroke:#181818;stroke-width:0.5;" width="109.3477" x="90.8467" y="452.8594"/><text fill="#000000" font-family="sans-serif" font-size="14" lengthAdjust="spacing" textLength="95.3477" x="97.8467" y="473.3945">ServiceWorker</text></g><g class="participant participant-head" data-participant="API"><rect fill="#E2E2F0" height="30.4883" rx="2.5" ry="2.5" style="stroke:#181818;stroke-width:0.5;" width="35.4307" x="378.7085" y="50"/><text fill="#000000" font-family="sans-serif" font-size="14" lengthAdjust="spacing" textLength="21.4307" x="385.7085" y="70.5352">API</text></g><g class="participant participant-tail" data-participant="API"><rect fill="#E2E2F0" height="30.4883" rx="2.5" ry="2.5" style="stroke:#181818;stroke-width:0.5;" width="35.4307" x="378.7085" y="452.8594"/><text fill="#000000" font-family="sans-serif" font-size="14" lengthAdjust="spacing" textLength="21.4307" x="385.7085" y="473.3945">API</text></g><g class="participant participant-head" data-participant="DB"><rect fill="#E2E2F0" height="30.4883" rx="2.5" ry="2.5" style="stroke:#181818;stroke-width:0.5;" width="79.2148" x="496.7563" y="50"/><text fill="#000000" font-family="sans-serif" font-size="14" lengthAdjust="spacing" textLength="65.2148" x="503.7563" y="70.5352">MongoDB</text></g><g class="participant participant-tail" data-participant="DB"><rect fill="#E2E2F0" height="30.4883" rx="2.5" ry="2.5" style="stroke:#181818;stroke-width:0.5;" width="79.2148" x="496.7563" y="452.8594"/><text fill="#000000" font-family="sans-serif" font-size="14" lengthAdjust="spacing" textLength="65.2148" x="503.7563" y="473.3945">MongoDB</text></g><g class="participant participant-head" data-participant="ScrapingService"><rect fill="#E2E2F0" height="30.4883" rx="2.5" ry="2.5" style="stroke:#181818;stroke-width:0.5;" width="119.7793" x="585.9712" y="50"/><text fill="#000000" font-family="sans-serif" font-size="14" lengthAdjust="spacing" textLength="105.7793" x="592.9712" y="70.5352">ScrapingService</text></g><g class="participant participant-tail" data-participant="ScrapingService"><rect fill="#E2E2F0" height="30.4883" rx="2.5" ry="2.5" style="stroke:#181818;stroke-width:0.5;" width="119.7793" x="585.9712" y="452.8594"/><text fill="#000000" font-family="sans-serif" font-size="14" lengthAdjust="spacing" textLength="105.7793" x="592.9712" y="473.3945">ScrapingService</text></g><g class="message" data-participant-1="User" data-participant-2="SW"><polygon fill="#181818" points="133.5205,108.7988,143.5205,112.7988,133.5205,116.7988,137.5205,112.7988" style="stroke:#181818;stroke-width:1;"/><line style="stroke:#181818;stroke-width:1;" x1="23.1826" x2="139.5205" y1="112.7988" y2="112.7988"/><text fill="#000000" font-family="sans-serif" font-size="13" lengthAdjust="spacing" textLength="65.7935" x="30.1826" y="108.0566">clickScan()</text></g><g class="message" data-participant-1="SW" data-participant-2="API"><polygon fill="#181818" points="384.4238,138.1094,394.4238,142.1094,384.4238,146.1094,388.4238,142.1094" style="stroke:#181818;stroke-width:1;"/><line style="stroke:#181818;stroke-width:1;" x1="145.5205" x2="390.4238" y1="142.1094" y2="142.1094"/><text fill="#000000" font-family="sans-serif" font-size="13" lengthAdjust="spacing" textLength="226.9033" x="152.5205" y="137.3672">GET /lookup?domain=example.com</text></g><path d="M368.7085,157.1094 L430.8472,157.1094 L430.8472,164.4199 L420.8472,174.4199 L368.7085,174.4199 L368.7085,157.1094" fill="#EEEEEE" style="stroke:#000000;stroke-width:1.5;"/><rect fill="none" height="221.1289" style="stroke:#000000;stroke-width:1.5;" width="375.6948" x="368.7085" y="157.1094"/><text fill="#000000" font-family="sans-serif" font-size="13" font-weight="bold" lengthAdjust="spacing" textLength="17.1387" x="383.7085" y="170.6777">alt</text><text fill="#000000" font-family="sans-serif" font-size="11" font-weight="bold" lengthAdjust="spacing" textLength="58.8833" x="445.8472" y="169.7441">[cache hit]</text><g class="message" data-participant-1="API" data-participant-2="DB"><polygon fill="#181818" points="524.3638,191.7305,534.3638,195.7305,524.3638,199.7305,528.3638,195.7305" style="stroke:#181818;stroke-width:1;"/><line style="stroke:#181818;stroke-width:1;" x1="396.4238" x2="530.3638" y1="195.7305" y2="195.7305"/><text fill="#000000" font-family="sans-serif" font-size="13" lengthAdjust="spacing" textLength="80.5518" x="403.4238" y="190.9883">find(domain)</text></g><g class="message" data-participant-1="DB" data-participant-2="API"><polygon fill="#181818" points="407.4238,221.041,397.4238,225.041,407.4238,229.041,403.4238,225.041" style="stroke:#181818;stroke-width:1;"/><line style="stroke:#181818;stroke-width:1;stroke-dasharray:2.0,2.0;" x1="401.4238" x2="535.3638" y1="225.041" y2="225.041"/><text fill="#000000" font-family="sans-serif" font-size="13" lengthAdjust="spacing" textLength="115.9399" x="413.4238" y="220.2988">return cachedData</text></g><line style="stroke:#000000;stroke-width:1;stroke-dasharray:2.0,2.0;" x1="368.7085" x2="744.4033" y1="234.041" y2="234.041"/><text fill="#000000" font-family="sans-serif" font-size="11" font-weight="bold" lengthAdjust="spacing" textLength="70.3076" x="373.7085" y="244.6758">[cache miss]</text><g class="message" data-participant-1="API" data-participant-2="ScrapingService"><polygon fill="#181818" points="633.8608,265.3066,643.8608,269.3066,633.8608,273.3066,637.8608,269.3066" style="stroke:#181818;stroke-width:1;"/><line style="stroke:#181818;stroke-width:1;" x1="396.4238" x2="639.8608" y1="269.3066" y2="269.3066"/><text fill="#000000" font-family="sans-serif" font-size="13" lengthAdjust="spacing" textLength="75.9688" x="403.4238" y="264.5645">fetchHTML()</text></g><g class="message" data-participant-1="ScrapingService" data-participant-2="ScrapingService"><line style="stroke:#181818;stroke-width:1;" x1="645.8608" x2="687.8608" y1="298.6172" y2="298.6172"/><line style="stroke:#181818;stroke-width:1;" x1="687.8608" x2="687.8608" y1="298.6172" y2="311.6172"/><line style="stroke:#181818;stroke-width:1;" x1="646.8608" x2="687.8608" y1="311.6172" y2="311.6172"/><polygon fill="#181818" points="656.8608,307.6172,646.8608,311.6172,656.8608,315.6172,652.8608,311.6172" style="stroke:#181818;stroke-width:1;"/><text fill="#000000" font-family="sans-serif" font-size="13" lengthAdjust="spacing" textLength="79.5425" x="652.8608" y="293.875">parseFields()</text></g><g class="message" data-participant-1="ScrapingService" data-participant-2="API"><polygon fill="#181818" points="407.4238,336.9277,397.4238,340.9277,407.4238,344.9277,403.4238,340.9277" style="stroke:#181818;stroke-width:1;"/><line style="stroke:#181818;stroke-width:1;stroke-dasharray:2.0,2.0;" x1="401.4238" x2="644.8608" y1="340.9277" y2="340.9277"/><text fill="#000000" font-family="sans-serif" font-size="13" lengthAdjust="spacing" textLength="58.8237" x="413.4238" y="336.1855">metadata</text></g><g class="message" data-participant-1="API" data-participant-2="DB"><polygon fill="#181818" points="524.3638,366.2383,534.3638,370.2383,524.3638,374.2383,528.3638,370.2383" style="stroke:#181818;stroke-width:1;"/><line style="stroke:#181818;stroke-width:1;" x1="396.4238" x2="530.3638" y1="370.2383" y2="370.2383"/><text fill="#000000" font-family="sans-serif" font-size="13" lengthAdjust="spacing" textLength="95.0562" x="403.4238" y="365.4961">save(metadata)</text></g><g class="message" data-participant-1="API" data-participant-2="SW"><polygon fill="#181818" points="156.5205,402.5488,146.5205,406.5488,156.5205,410.5488,152.5205,406.5488" style="stroke:#181818;stroke-width:1;"/><line style="stroke:#181818;stroke-width:1;stroke-dasharray:2.0,2.0;" x1="150.5205" x2="395.4238" y1="406.5488" y2="406.5488"/><text fill="#000000" font-family="sans-serif" font-size="13" lengthAdjust="spacing" textLength="93.0566" x="162.5205" y="401.8066">send metadata</text></g><g class="message" data-participant-1="SW" data-participant-2="User"><polygon fill="#181818" points="34.1826,431.8594,24.1826,435.8594,34.1826,439.8594,30.1826,435.8594" style="stroke:#181818;stroke-width:1;"/><line style="stroke:#181818;stroke-width:1;" x1="28.1826" x2="144.5205" y1="435.8594" y2="435.8594"/><text fill="#000000" font-family="sans-serif" font-size="13" lengthAdjust="spacing" textLength="98.3379" x="40.1826" y="431.1172">displayResults()</text></g><!--SRC=[RP1DQyCm38Rl_XKYf-JGxHxOnaBs1IkCfQDd8MkDYMCRsodRlv_T99IE7YtvUIIzID5w-0hiXKCV5Ic79aAt1mnGTEoFYdXl_S2-kFZn-F5syMwR4x6rvc3RfX0YEs5pdrGra5OqT8Ich4HIfsh2QtXvsi6jjdQOt8Eq8ofpnpyuEiqtP4U1EW8XzGozYW8oaz6sgU5R6LdEI9KwQVXcbNgEapSpA5kCA5W7NaIZ2k5iwiYZK-Qmd9cq7Ab_tMtVospzrxvAf0W2FolMCbndrhL6ZYZpDXTt13nokROgmKQAKtV9BQJ2cPoJoxdM85Lm6dy_EKmwfj5_]--></g></svg>